<?xml version="1.0" encoding="utf-8"?>
<!-- Generator: Adobe Illustrator 27.1.1, SVG Export Plug-In . SVG Version: 6.00 Build 0)  -->
<svg version="1.1" id="Calque_1" xmlns="http://www.w3.org/2000/svg" xmlns:xlink="http://www.w3.org/1999/xlink" x="0px" y="0px"
	 viewBox="0 0 1920 1080" style="enable-background:new 0 0 1920 1080;" xml:space="preserve">
<style type="text/css">
	.st0{fill:#225074;}
	.st1{fill:#29ABE0;}
	.st2{fill:none;stroke:#225074;stroke-width:4;stroke-miterlimit:10;}
</style>
<g>
	<g>
		<polygon class="st0" points="350.2,415.6 476.7,415.6 470.1,468.9 342.1,468.9 		"/>
		<polygon class="st0" points="383.8,488.7 440.1,488.7 421.1,594.7 364.8,594.7 		"/>
		<polygon class="st0" points="500,415.6 557.8,415.6 523.4,594.7 469.3,594.7 		"/>
		<polygon class="st0" points="581.9,415.6 549.8,594.7 617,541.3 626.5,479.2 657.2,513.5 774.2,415.6 696.7,415.6 668.9,433.8 
			652.8,415.6 		"/>
		<polygon class="st1" points="757.4,450.6 696,504.7 683.5,560.3 742.7,560.3 		"/>
	</g>
	<g>
		<g>
			<g>
				<path class="st0" d="M305.1,641.8h-7.6V639H316v2.7h-7.6V664h-3.3V641.8z"/>
				<path class="st0" d="M318.7,639.4c1.6-0.3,4-0.5,6.2-0.5c3.4,0,5.7,0.6,7.2,2c1.3,1.1,2,2.8,2,4.7c0,3.3-2.1,5.5-4.7,6.4v0.1
					c1.9,0.7,3.1,2.4,3.7,5c0.8,3.5,1.4,5.9,1.9,6.9h-3.3c-0.4-0.7-1-2.9-1.7-6c-0.7-3.4-2.1-4.7-5-4.9h-3V664h-3.2V639.4z
					 M322,650.8h3.3c3.4,0,5.6-1.9,5.6-4.7c0-3.2-2.3-4.6-5.7-4.7c-1.6,0-2.7,0.1-3.2,0.3V650.8z"/>
				<path class="st0" d="M341.9,639v14.8c0,5.6,2.5,8,5.8,8c3.7,0,6.1-2.4,6.1-8V639h3.3v14.6c0,7.7-4,10.8-9.5,10.8
					c-5.1,0-9-2.9-9-10.7V639H341.9z"/>
				<path class="st0" d="M380.1,663.2c-1.2,0.6-3.6,1.2-6.6,1.2c-7,0-12.3-4.4-12.3-12.6c0-7.8,5.3-13.1,13.1-13.1
					c3.1,0,5.1,0.7,5.9,1.1l-0.8,2.6c-1.2-0.6-3-1-5-1c-5.9,0-9.8,3.7-9.8,10.3c0,6.1,3.5,10,9.6,10c2,0,4-0.4,5.3-1L380.1,663.2z"
					/>
				<path class="st0" d="M384.2,639h3.2v12.1h0.1c0.7-1,1.3-1.9,2-2.7l7.6-9.4h4l-9,10.6l9.8,14.4H398l-8.2-12.3l-2.4,2.7v9.5h-3.2
					V639z"/>
				<path class="st0" d="M415.4,639v25h-3.2v-25H415.4z"/>
				<path class="st0" d="M421,664v-25h3.5l8,12.6c1.9,2.9,3.3,5.6,4.5,8.1l0.1,0c-0.3-3.3-0.4-6.4-0.4-10.3V639h3v25h-3.3l-7.9-12.7
					c-1.7-2.8-3.4-5.6-4.7-8.3l-0.1,0c0.2,3.2,0.3,6.2,0.3,10.3V664H421z"/>
				<path class="st0" d="M450.1,641.8h-7.6V639H461v2.7h-7.6V664h-3.3V641.8z"/>
				<path class="st0" d="M476.8,652.3H467v9h10.8v2.7h-14.1v-25h13.5v2.7H467v7.9h9.7V652.3z"/>
				<path class="st0" d="M482.1,639.4c1.6-0.3,4-0.5,6.2-0.5c3.4,0,5.7,0.6,7.2,2c1.3,1.1,2,2.8,2,4.7c0,3.3-2.1,5.5-4.7,6.4v0.1
					c1.9,0.7,3.1,2.4,3.7,5c0.8,3.5,1.4,5.9,1.9,6.9H495c-0.4-0.7-1-2.9-1.7-6c-0.7-3.4-2.1-4.7-5-4.9h-3V664h-3.2V639.4z
					 M485.3,650.8h3.3c3.4,0,5.6-1.9,5.6-4.7c0-3.2-2.3-4.6-5.7-4.7c-1.6,0-2.7,0.1-3.2,0.3V650.8z"/>
				<path class="st0" d="M502,664v-25h3.5l8,12.6c1.9,2.9,3.3,5.6,4.5,8.1l0.1,0c-0.3-3.3-0.4-6.4-0.4-10.3V639h3v25h-3.3l-7.9-12.7
					c-1.7-2.8-3.4-5.6-4.7-8.3l-0.1,0c0.2,3.2,0.3,6.2,0.3,10.3V664H502z"/>
				<path class="st0" d="M530.4,656.2l-2.6,7.9h-3.3l8.5-25h3.9l8.5,25H542l-2.7-7.9H530.4z M538.6,653.7l-2.4-7.2
					c-0.6-1.6-0.9-3.1-1.3-4.6h-0.1c-0.4,1.5-0.8,3-1.3,4.5l-2.4,7.2H538.6z"/>
				<path class="st0" d="M551,641.8h-7.6V639h18.5v2.7h-7.6V664H551V641.8z"/>
				<path class="st0" d="M567.9,639v25h-3.2v-25H567.9z"/>
				<path class="st0" d="M594.9,651.3c0,8.6-5.2,13.2-11.6,13.2c-6.6,0-11.2-5.1-11.2-12.7c0-7.9,4.9-13.1,11.6-13.1
					C590.5,638.6,594.9,643.9,594.9,651.3z M575.5,651.7c0,5.3,2.9,10.1,8,10.1c5.1,0,8-4.7,8-10.4c0-5-2.6-10.2-8-10.2
					C578.2,641.3,575.5,646.2,575.5,651.7z"/>
				<path class="st0" d="M599.1,664v-25h3.5l8,12.6c1.9,2.9,3.3,5.6,4.5,8.1l0.1,0c-0.3-3.3-0.4-6.4-0.4-10.3V639h3v25h-3.3
					l-7.9-12.7c-1.7-2.8-3.4-5.6-4.7-8.3l-0.1,0c0.2,3.2,0.3,6.2,0.3,10.3V664H599.1z"/>
				<path class="st0" d="M627.5,656.2l-2.6,7.9h-3.3l8.5-25h3.9l8.5,25H639l-2.7-7.9H627.5z M635.7,653.7l-2.4-7.2
					c-0.6-1.6-0.9-3.1-1.3-4.6h-0.1c-0.4,1.5-0.8,3-1.3,4.5l-2.4,7.2H635.7z"/>
				<path class="st0" d="M646.2,639h3.2v22.3h10.7v2.7h-13.9V639z"/>
				<path class="st0" d="M692.6,653.1c-0.2-3.5-0.4-7.7-0.4-10.8h-0.1c-0.9,2.9-1.9,6-3.2,9.5l-4.4,12.1h-2.4l-4-11.9
					c-1.2-3.5-2.2-6.7-2.9-9.7h-0.1c-0.1,3.1-0.3,7.3-0.5,11l-0.7,10.7h-3.1l1.7-25h4.1l4.3,12.1c1,3.1,1.9,5.8,2.5,8.4h0.1
					c0.6-2.5,1.5-5.3,2.6-8.4l4.4-12.1h4.1l1.6,25h-3.2L692.6,653.1z"/>
				<path class="st0" d="M722.7,651.3c0,8.6-5.2,13.2-11.6,13.2c-6.6,0-11.2-5.1-11.2-12.7c0-7.9,4.9-13.1,11.6-13.1
					C718.3,638.6,722.7,643.9,722.7,651.3z M703.3,651.7c0,5.3,2.9,10.1,8,10.1c5.1,0,8-4.7,8-10.4c0-5-2.6-10.2-8-10.2
					C706,641.3,703.3,646.2,703.3,651.7z"/>
				<path class="st0" d="M726.9,639.4c1.4-0.3,3.6-0.5,5.9-0.5c3.2,0,5.3,0.6,6.9,1.8c1.3,1,2.1,2.4,2.1,4.4c0,2.4-1.6,4.5-4.2,5.5
					v0.1c2.4,0.6,5.2,2.6,5.2,6.3c0,2.2-0.9,3.8-2.1,5c-1.7,1.6-4.6,2.3-8.6,2.3c-2.2,0-3.9-0.1-5-0.3V639.4z M730.1,649.6h2.9
					c3.4,0,5.4-1.8,5.4-4.2c0-2.9-2.2-4.1-5.5-4.1c-1.5,0-2.3,0.1-2.9,0.2V649.6z M730.1,661.6c0.6,0.1,1.6,0.1,2.7,0.1
					c3.3,0,6.4-1.2,6.4-4.9c0-3.4-2.9-4.8-6.5-4.8h-2.7V661.6z"/>
				<path class="st0" d="M750.2,639v25H747v-25H750.2z"/>
				<path class="st0" d="M755.8,639h3.2v22.3h10.7v2.7h-13.9V639z"/>
				<path class="st0" d="M776.6,639v25h-3.2v-25H776.6z"/>
				<path class="st0" d="M787,641.8h-7.6V639h18.5v2.7h-7.6V664H787V641.8z"/>
				<path class="st0" d="M807.2,664v-10.6l-7.9-14.4h3.7l3.5,6.9c1,1.9,1.7,3.4,2.5,5.2h0.1c0.7-1.6,1.6-3.3,2.5-5.2l3.6-6.9h3.7
					l-8.4,14.3V664H807.2z"/>
			</g>
		</g>
	</g>
	<g>
		<g>
			<path class="st0" d="M972.1,415.6l29.8,38.3l43.4-38.3h5.4l-11.6,65.6h-14.2l6.6-37.6l-31.5,28.1h-2.6l-21.5-28.1l-6.6,37.5
				h-14.2l11.6-65.6H972.1z"/>
			<path class="st0" d="M1091,481.2l1.1-6.6c-5.2,5.3-12.6,8.7-21.4,8.7c-15.8,0-25.2-10.6-22.8-23.7c2.3-13.1,15.4-23.8,31.2-23.8
				c8.8,0,15,3.4,18.4,8.7l1.1-6.6h14.2l-7.6,43.4H1091z M1075.5,472.7c9.8,0,18-6,19.3-13.2c1.3-7.4-4.8-13.3-14.6-13.3
				c-9.5,0-18.2,5.9-19.5,13.3C1059.4,466.8,1066.1,472.7,1075.5,472.7z"/>
			<path class="st0" d="M1133,437.7l-1.3,7.4c5.2-5.8,12.8-9.4,21.7-9.4c14.4,0,22.2,8.7,19.8,21.8l-4.1,23.7h-14.2l4.1-23.7
				c1.3-7.4-4-11.2-12.2-11.2c-8.4,0-15,4.8-16.2,12.1l-4,22.9h-14.2l7.6-43.4H1133z"/>
			<path class="st0" d="M1220.9,481.2l1.1-6.6c-5.2,5.3-12.6,8.7-21.4,8.7c-15.8,0-25.2-10.6-22.8-23.7
				c2.3-13.1,15.4-23.8,31.2-23.8c8.8,0,15,3.4,18.4,8.7l1.1-6.6h14.2l-7.6,43.4H1220.9z M1205.4,472.7c9.8,0,18-6,19.3-13.2
				c1.3-7.4-4.8-13.3-14.6-13.3c-9.5,0-18.2,5.9-19.5,13.3C1189.3,466.8,1196,472.7,1205.4,472.7z"/>
			<path class="st0" d="M1295.3,444.3l1.1-6.6h14.2l-7.2,41.1c-2.2,12.2-16.8,22.3-34,22.3c-14,0-25.2-6.6-25.6-15.7l13.1-2.3
				c0.5,3.9,6.1,7,14.1,7c10.4,0,18.3-5.7,19.4-12.1l1.2-7c-5.1,6-13,10-22.7,10c-13.1,0-25.6-8.4-23.1-22.7
				c2.2-12.1,15.3-22.7,31.1-22.7C1285.7,435.7,1292,439.1,1295.3,444.3z M1273.7,471.2c9.5,0,18-6.5,19.1-12.8
				c1.1-6.3-5.1-12.8-14.6-12.8c-10.8,0-18.3,5.9-19.5,12.8C1257.3,466.4,1264.9,471.2,1273.7,471.2z"/>
			<path class="st0" d="M1337.4,483.2c-17.5,0-26.9-10.6-24.6-23.7c2.3-13.1,15.5-23.8,33-23.8c20.6,0,28.9,14.5,22.6,28.1h-43
				c1,5,6,8.5,14.2,8.5c5.7,0,11.7-2.1,15-5.1l10.6,3.6C1359.7,477.8,1349,483.2,1337.4,483.2z M1357.2,454.9
				c0.2-4.7-4.3-8.6-12.9-8.6c-8,0-14,3.6-16.9,8.6H1357.2z"/>
			<path class="st0" d="M1401.7,446.2c-5.3,0-9.7,3.5-10.4,7.9l-4.8,27h-14.2l7.6-43.4h12.4l-0.9,5.1c4-4.4,9.7-7.1,16.6-7.1
				c7.4,0,12.5,2.8,14.6,7.9c4-4.9,10-7.9,17.2-7.9c11.4,0,17.4,6.6,15.4,17.6l-4.9,27.8h-14.2l4.9-27.8c0.7-4-2.2-7.1-7.4-7.1
				c-5.3,0-9.7,3.5-10.4,7.9l-4.8,27h-14.2l4.9-27.8C1409.8,449.3,1406.9,446.2,1401.7,446.2z"/>
			<path class="st0" d="M1485,483.2c-17.5,0-26.9-10.6-24.6-23.7c2.3-13.1,15.5-23.8,33-23.8c20.6,0,28.9,14.5,22.6,28.1h-43
				c1,5,6,8.5,14.2,8.5c5.7,0,11.7-2.1,15-5.1l10.6,3.6C1507.2,477.8,1496.5,483.2,1485,483.2z M1504.8,454.9
				c0.2-4.7-4.3-8.6-12.9-8.6c-8,0-14,3.6-16.9,8.6H1504.8z"/>
			<path class="st0" d="M1540.2,437.7l-1.3,7.4c5.2-5.8,12.8-9.4,21.7-9.4c14.4,0,22.2,8.7,19.8,21.8l-4.1,23.7h-14.2l4.1-23.7
				c1.3-7.4-4-11.2-12.2-11.2c-8.4,0-15,4.8-16.2,12.1l-4,22.9h-14.2l7.6-43.4H1540.2z"/>
			<path class="st0" d="M1614.7,419.1l-2.7,15.2h10.5l-1.9,10.5h-10.5l-6.4,36.3h-14.2l6.4-36.3h-10.3l1.9-10.5h10.3l2.3-13.2
				L1614.7,419.1z"/>
		</g>
		<g>
			<path class="st0" d="M994.5,510.6c17.8,0,27.3,9.9,25.7,20.5l-13.7,1c0.4-4.5-4.2-9-14.2-9c-9.8,0-15.3,3.6-16,7.6
				c-0.7,4.3,3.2,7.8,14.1,8.4c20.5,1.2,27.6,9,25.6,19.9c-2,11.8-16.8,21.2-33.4,21.2c-17.3,0-28.7-8.3-27.4-21.4l13.8-0.8
				c-0.4,5.3,6.1,9.5,15.9,9.5c9.5,0,17-3.9,17.8-8.6c0.9-4.9-3.6-7.9-15-8.7c-19.3-1.1-26.5-9.3-24.8-19.7
				C965.1,519.3,978.3,510.6,994.5,510.6z"/>
			<path class="st0" d="M1019.2,534.8h15l12,27.3l20.5-27.3h15l-44.7,59.9h-13.7L1037,576L1019.2,534.8z"/>
			<path class="st0" d="M1119.5,565.2c-1.5,8.7-11.2,15-23.9,15c-10.1,0-18.3-2.3-23.6-7.1l5.4-10.7c4.6,4,12.5,6.1,19.5,6.1
				c6.2,0,10.5-1.9,10.8-3.8c0.3-1.8-2.4-3.1-9.2-3.2c-13.3-0.3-19.8-6-18.4-14.3c1.4-7.9,9.6-14.5,21.9-14.5
				c9.5,0,15.5,2.3,19.4,4.9l-1.9,11.2c-3.8-2.7-10.2-4.4-17.2-4.4c-5.9,0-9.5,1.6-9.9,3.6c-0.4,2,2.8,3.2,9.5,3.3
				C1116.4,551.5,1120.9,557.4,1119.5,565.2z"/>
			<path class="st0" d="M1153.9,516.2l-2.7,15.2h10.5l-1.9,10.5h-10.5l-6.4,36.3h-14.2l6.4-36.3h-10.3l1.9-10.5h10.3l2.3-13.2
				L1153.9,516.2z"/>
			<path class="st0" d="M1181.4,580.2c-17.5,0-26.9-10.6-24.6-23.7c2.3-13.1,15.5-23.8,33-23.8c20.6,0,28.9,14.5,22.6,28.1h-43
				c1,5,6,8.5,14.2,8.5c5.7,0,11.7-2.1,15-5.1l10.6,3.6C1203.7,574.8,1193,580.2,1181.4,580.2z M1201.2,552
				c0.2-4.7-4.3-8.6-12.9-8.6c-8,0-14,3.6-16.9,8.6H1201.2z"/>
			<path class="st0" d="M1245.7,543.3c-5.3,0-9.7,3.5-10.4,7.9l-4.8,27h-14.2l7.6-43.4h12.4l-0.9,5.1c4-4.4,9.7-7.1,16.6-7.1
				c7.4,0,12.5,2.8,14.6,7.9c4-4.9,10-7.9,17.2-7.9c11.4,0,17.4,6.6,15.4,17.6l-4.9,27.8h-14.2l4.9-27.8c0.7-4-2.2-7.1-7.4-7.1
				c-5.3,0-9.7,3.5-10.4,7.9l-4.8,27h-14.2l4.9-27.8C1253.8,546.3,1250.9,543.3,1245.7,543.3z"/>
		</g>
	</g>
	<line class="st2" x1="864.7" y1="448.4" x2="864.7" y2="560.3"/>
</g>
</svg>
